<svg xmlns="http://www.w3.org/2000/svg" viewBox="0 0 512 512" role="img" aria-label="Mood Happy Arrow">
	<defs>
		<filter id="shadow" x="-30%" y="-30%" width="160%" height="170%">
			<feDropShadow dx="0" dy="12" stdDeviation="10" flood-color="#1f2330" flood-opacity="0.2"/>
		</filter>
	</defs>
	<g filter="url(#shadow)">
		<path d="M 51 188 H 302 V 105 L 466 256 L 302 407 V 324 H 51 Z" fill="#8f7cff" stroke="white" stroke-width="30" stroke-linejoin="round"/><path d="M 51 188 H 302 V 105 L 466 256 L 302 407 V 324 H 51 Z" fill="#8f7cff" stroke="#4a2b45" stroke-width="10" stroke-linejoin="round"/><text x="256" y="258" text-anchor="middle" dominant-baseline="middle" fill="white" stroke="white" stroke-width="16" paint-order="stroke" stroke-linejoin="round" font-family="PingFang SC, Noto Sans CJK SC, Arial, sans-serif" font-size="74" font-weight="900">开心</text>
		<path d="M 397 82 C 369 55 339 90 397 132 C 455 90 425 55 397 82 Z" fill="#8f7cff" stroke="white" stroke-width="11"/>
		<g fill="#8f7cff" stroke="white" stroke-width="7" stroke-linejoin="round">
		<path d="M 78 96 L 88 126 L 119 136 L 88 146 L 78 177 L 68 146 L 37 136 L 68 126 Z"/>
		<path d="M 423 333 L 432 357 L 457 366 L 432 375 L 423 400 L 414 375 L 389 366 L 414 357 Z"/>
		<circle cx="416" cy="104" r="13"/>
		<circle cx="101" cy="386" r="10"/>
	</g>
	</g>
</svg>
