<svg xmlns="http://www.w3.org/2000/svg" viewBox="0 0 512 512" role="img" aria-label="Butter Bear Crying">
	<defs>
		<filter id="shadow" x="-30%" y="-30%" width="160%" height="170%">
			<feDropShadow dx="0" dy="13" stdDeviation="10" flood-color="#312331" flood-opacity="0.22"/>
		</filter>
	</defs>
	<g filter="url(#shadow)">


		<g>
			<circle cx="174" cy="168" r="54" fill="#f4cf68" stroke="white" stroke-width="32"/>
			<circle cx="338" cy="168" r="54" fill="#f4cf68" stroke="white" stroke-width="32"/>
			<circle cx="174" cy="168" r="54" fill="#f4cf68" stroke="#674a23" stroke-width="12"/>
			<circle cx="338" cy="168" r="54" fill="#f4cf68" stroke="#674a23" stroke-width="12"/>
			<circle cx="174" cy="168" r="30" fill="#ffe8a3"/>
			<circle cx="338" cy="168" r="30" fill="#ffe8a3"/>
		</g>
		<ellipse cx="256" cy="367" rx="128" ry="105" fill="#f4cf68" stroke="white" stroke-width="32"/>
		<path d="M 128 230 C 128 142 188 112 256 112 C 324 112 384 142 384 230 C 384 329 330 371 256 371 C 182 371 128 329 128 230 Z" fill="#f4cf68" stroke="white" stroke-width="32" stroke-linejoin="round"/>
		<ellipse cx="256" cy="367" rx="128" ry="105" fill="#f4cf68" stroke="#674a23" stroke-width="12"/>
		<path d="M 128 230 C 128 142 188 112 256 112 C 324 112 384 142 384 230 C 384 329 330 371 256 371 C 182 371 128 329 128 230 Z" fill="#f4cf68" stroke="#674a23" stroke-width="12" stroke-linejoin="round"/>
		<ellipse cx="171" cy="373" rx="47" ry="36" fill="#f4cf68" stroke="#674a23" stroke-width="10" transform="rotate(20 171 373)"/>
		<ellipse cx="341" cy="373" rx="47" ry="36" fill="#f4cf68" stroke="#674a23" stroke-width="10" transform="rotate(-20 341 373)"/>
		<ellipse cx="214" cy="452" rx="52" ry="28" fill="#ffe8a3" stroke="#674a23" stroke-width="10"/>
		<ellipse cx="298" cy="452" rx="52" ry="28" fill="#ffe8a3" stroke="#674a23" stroke-width="10"/>
		<ellipse cx="256" cy="289" rx="49" ry="38" fill="#ffe8a3"/>
			<ellipse cx="256" cy="280" rx="14" ry="11" fill="#674a23"/>
		<path d="M 193 249 Q 214 232 235 249 M 277 249 Q 298 232 319 249" fill="none" stroke="#674a23" stroke-width="11" stroke-linecap="round"/>
			<path d="M 207 263 C 192 286 194 307 213 309 C 231 306 231 286 207 263 Z M 305 263 C 281 286 281 306 299 309 C 318 307 320 286 305 263 Z" fill="#58b9f4"/>
			<path d="M 232 326 Q 256 302 280 326" fill="none" stroke="#674a23" stroke-width="10" stroke-linecap="round"/>
		<ellipse cx="256" cy="431" rx="96" ry="18" fill="#7bcaf5" opacity="0.72"/>

	</g>
</svg>
