<svg xmlns="http://www.w3.org/2000/svg" viewBox="0 0 512 512" role="img" aria-label="Capybara Panic">
	<defs>
		<filter id="shadow" x="-30%" y="-30%" width="160%" height="170%">
			<feDropShadow dx="0" dy="13" stdDeviation="10" flood-color="#312331" flood-opacity="0.22"/>
		</filter>
	</defs>
	<g filter="url(#shadow)">


		<g>
			<circle cx="174" cy="168" r="43" fill="#c69a6d" stroke="white" stroke-width="32"/>
			<circle cx="338" cy="168" r="43" fill="#c69a6d" stroke="white" stroke-width="32"/>
			<circle cx="174" cy="168" r="43" fill="#c69a6d" stroke="#4d3524" stroke-width="12"/>
			<circle cx="338" cy="168" r="43" fill="#c69a6d" stroke="#4d3524" stroke-width="12"/>
			<circle cx="174" cy="168" r="24" fill="#e8cfae"/>
			<circle cx="338" cy="168" r="24" fill="#e8cfae"/>
		</g>
		<ellipse cx="256" cy="367" rx="128" ry="105" fill="#c69a6d" stroke="white" stroke-width="32"/>
		<path d="M 128 230 C 128 142 188 112 256 112 C 324 112 384 142 384 230 C 384 329 330 371 256 371 C 182 371 128 329 128 230 Z" fill="#c69a6d" stroke="white" stroke-width="32" stroke-linejoin="round"/>
		<ellipse cx="256" cy="367" rx="128" ry="105" fill="#c69a6d" stroke="#4d3524" stroke-width="12"/>
		<path d="M 128 230 C 128 142 188 112 256 112 C 324 112 384 142 384 230 C 384 329 330 371 256 371 C 182 371 128 329 128 230 Z" fill="#c69a6d" stroke="#4d3524" stroke-width="12" stroke-linejoin="round"/>
		<ellipse cx="171" cy="373" rx="47" ry="36" fill="#c69a6d" stroke="#4d3524" stroke-width="10" transform="rotate(20 171 373)"/>
		<ellipse cx="341" cy="373" rx="47" ry="36" fill="#c69a6d" stroke="#4d3524" stroke-width="10" transform="rotate(-20 341 373)"/>
		<ellipse cx="214" cy="452" rx="52" ry="28" fill="#e8cfae" stroke="#4d3524" stroke-width="10"/>
		<ellipse cx="298" cy="452" rx="52" ry="28" fill="#e8cfae" stroke="#4d3524" stroke-width="10"/>
		<rect x="196" y="266" width="120" height="62" rx="30" fill="#e8cfae"/>
			<ellipse cx="256" cy="285" rx="24" ry="13" fill="#4d3524"/>
			<path d="M 256 298 L 256 312" stroke="#4d3524" stroke-width="7" stroke-linecap="round"/>
		<path d="M 193 250 Q 214 271 235 250 M 277 250 Q 298 271 319 250" fill="none" stroke="#4d3524" stroke-width="11" stroke-linecap="round"/>
		<path d="M 226 300 Q 256 333 286 300" fill="none" stroke="#4d3524" stroke-width="11" stroke-linecap="round"/>

		<g transform="rotate(-4 256 82)">
		<rect x="181" y="28" width="150" height="78" rx="34" fill="white" stroke="#4d3524" stroke-width="9"/>
		<text x="256" y="80" text-anchor="middle" fill="#a97b4f" font-family="PingFang SC, Noto Sans CJK SC, Arial, sans-serif" font-size="40" font-weight="800">慌了</text>
	</g>
	</g>
</svg>
