<svg xmlns="http://www.w3.org/2000/svg" viewBox="0 0 512 512" role="img" aria-label="Line Puppy Angry">
	<defs>
		<filter id="shadow" x="-30%" y="-30%" width="160%" height="170%">
			<feDropShadow dx="0" dy="13" stdDeviation="10" flood-color="#312331" flood-opacity="0.22"/>
		</filter>
	</defs>
	<g filter="url(#shadow)">
		<path d="M 103 192 C 67 170 48 198 65 222 C 36 227 43 266 79 267 C 81 296 123 302 137 270" fill="white" stroke="#3d4468" stroke-width="9"/>
			<path d="M 409 191 C 445 169 464 197 447 221 C 476 226 469 265 433 266 C 431 295 389 301 375 269" fill="white" stroke="#3d4468" stroke-width="9"/>

			<g stroke-linejoin="round">
				<ellipse cx="152" cy="232" rx="45" ry="88" fill="#ffffff" stroke="white" stroke-width="32" transform="rotate(-14 152 232)"/>
				<ellipse cx="360" cy="232" rx="45" ry="88" fill="#ffffff" stroke="white" stroke-width="32" transform="rotate(14 360 232)"/>
				<ellipse cx="152" cy="232" rx="45" ry="88" fill="#ffffff" stroke="#3d4468" stroke-width="12" transform="rotate(-14 152 232)"/>
				<ellipse cx="360" cy="232" rx="45" ry="88" fill="#ffffff" stroke="#3d4468" stroke-width="12" transform="rotate(14 360 232)"/>
				<ellipse cx="152" cy="245" rx="20" ry="52" fill="#ffe3ec" transform="rotate(-14 152 245)"/>
				<ellipse cx="360" cy="245" rx="20" ry="52" fill="#ffe3ec" transform="rotate(14 360 245)"/>
			</g>
		<ellipse cx="256" cy="367" rx="128" ry="105" fill="#ffffff" stroke="white" stroke-width="32"/>
		<path d="M 128 230 C 128 142 188 112 256 112 C 324 112 384 142 384 230 C 384 329 330 371 256 371 C 182 371 128 329 128 230 Z" fill="#ffffff" stroke="white" stroke-width="32" stroke-linejoin="round"/>
		<ellipse cx="256" cy="367" rx="128" ry="105" fill="#ffffff" stroke="#3d4468" stroke-width="12"/>
		<path d="M 128 230 C 128 142 188 112 256 112 C 324 112 384 142 384 230 C 384 329 330 371 256 371 C 182 371 128 329 128 230 Z" fill="#ffffff" stroke="#3d4468" stroke-width="12" stroke-linejoin="round"/>
		<ellipse cx="171" cy="373" rx="47" ry="36" fill="#ffffff" stroke="#3d4468" stroke-width="10" transform="rotate(20 171 373)"/>
		<ellipse cx="341" cy="373" rx="47" ry="36" fill="#ffffff" stroke="#3d4468" stroke-width="10" transform="rotate(-20 341 373)"/>
		<ellipse cx="214" cy="452" rx="52" ry="28" fill="#ffe3ec" stroke="#3d4468" stroke-width="10"/>
		<ellipse cx="298" cy="452" rx="52" ry="28" fill="#ffe3ec" stroke="#3d4468" stroke-width="10"/>
		<ellipse cx="256" cy="292" rx="52" ry="40" fill="#ffe3ec"/>
			<ellipse cx="256" cy="277" rx="19" ry="14" fill="#3d4468"/>
			<path d="M 256 291 L 256 304 M 256 304 Q 238 318 226 302 M 256 304 Q 274 318 286 302" fill="none" stroke="#3d4468" stroke-width="7" stroke-linecap="round"/>
		<path d="M 190 232 L 235 247 M 322 232 L 277 247" stroke="#3d4468" stroke-width="12" stroke-linecap="round"/>
			<circle cx="216" cy="259" r="10" fill="#3d4468"/><circle cx="296" cy="259" r="10" fill="#3d4468"/>
			<path d="M 231 316 Q 256 294 281 316" fill="none" stroke="#3d4468" stroke-width="10" stroke-linecap="round"/>


	</g>
</svg>
