<svg xmlns="http://www.w3.org/2000/svg" viewBox="0 0 512 512" role="img" aria-label="Line Puppy Gaming">
	<defs>
		<filter id="shadow" x="-30%" y="-30%" width="160%" height="170%">
			<feDropShadow dx="0" dy="13" stdDeviation="10" flood-color="#312331" flood-opacity="0.22"/>
		</filter>
	</defs>
	<g filter="url(#shadow)">
		<g stroke="#3d4468" stroke-width="9" stroke-linejoin="round">
			<path d="M 400 86 H 476 Q 500 86 500 118 V 150 Q 500 178 476 178 Q 458 178 452 164 H 412 Q 406 178 388 178 Q 364 178 364 150 V 118 Q 364 86 400 86 Z" fill="#7a8cff"/>
			<path d="M 400 116 V 142 M 387 129 H 413" stroke="white" stroke-width="9" stroke-linecap="round"/>
			<circle cx="464" cy="118" r="9" fill="white"/><circle cx="478" cy="142" r="9" fill="white"/>
		</g>

			<g stroke-linejoin="round">
				<ellipse cx="152" cy="232" rx="45" ry="88" fill="#ffffff" stroke="white" stroke-width="32" transform="rotate(-14 152 232)"/>
				<ellipse cx="360" cy="232" rx="45" ry="88" fill="#ffffff" stroke="white" stroke-width="32" transform="rotate(14 360 232)"/>
				<ellipse cx="152" cy="232" rx="45" ry="88" fill="#ffffff" stroke="#3d4468" stroke-width="12" transform="rotate(-14 152 232)"/>
				<ellipse cx="360" cy="232" rx="45" ry="88" fill="#ffffff" stroke="#3d4468" stroke-width="12" transform="rotate(14 360 232)"/>
				<ellipse cx="152" cy="245" rx="20" ry="52" fill="#ffe3ec" transform="rotate(-14 152 245)"/>
				<ellipse cx="360" cy="245" rx="20" ry="52" fill="#ffe3ec" transform="rotate(14 360 245)"/>
			</g>
		<ellipse cx="256" cy="367" rx="128" ry="105" fill="#ffffff" stroke="white" stroke-width="32"/>
		<path d="M 128 230 C 128 142 188 112 256 112 C 324 112 384 142 384 230 C 384 329 330 371 256 371 C 182 371 128 329 128 230 Z" fill="#ffffff" stroke="white" stroke-width="32" stroke-linejoin="round"/>
		<ellipse cx="256" cy="367" rx="128" ry="105" fill="#ffffff" stroke="#3d4468" stroke-width="12"/>
		<path d="M 128 230 C 128 142 188 112 256 112 C 324 112 384 142 384 230 C 384 329 330 371 256 371 C 182 371 128 329 128 230 Z" fill="#ffffff" stroke="#3d4468" stroke-width="12" stroke-linejoin="round"/>
		<ellipse cx="171" cy="373" rx="47" ry="36" fill="#ffffff" stroke="#3d4468" stroke-width="10" transform="rotate(20 171 373)"/>
		<ellipse cx="341" cy="373" rx="47" ry="36" fill="#ffffff" stroke="#3d4468" stroke-width="10" transform="rotate(-20 341 373)"/>
		<ellipse cx="214" cy="452" rx="52" ry="28" fill="#ffe3ec" stroke="#3d4468" stroke-width="10"/>
		<ellipse cx="298" cy="452" rx="52" ry="28" fill="#ffe3ec" stroke="#3d4468" stroke-width="10"/>
		<ellipse cx="256" cy="292" rx="52" ry="40" fill="#ffe3ec"/>
			<ellipse cx="256" cy="277" rx="19" ry="14" fill="#3d4468"/>
			<path d="M 256 291 L 256 304 M 256 304 Q 238 318 226 302 M 256 304 Q 274 318 286 302" fill="none" stroke="#3d4468" stroke-width="7" stroke-linecap="round"/>
		<path d="M 193 250 Q 214 271 235 250 M 277 250 Q 298 271 319 250" fill="none" stroke="#3d4468" stroke-width="11" stroke-linecap="round"/>
		<path d="M 226 300 Q 256 333 286 300" fill="none" stroke="#3d4468" stroke-width="11" stroke-linecap="round"/>

		<g transform="rotate(-4 256 82)">
		<rect x="181" y="28" width="150" height="78" rx="34" fill="white" stroke="#3d4468" stroke-width="9"/>
		<text x="256" y="80" text-anchor="middle" fill="#7a8cff" font-family="PingFang SC, Noto Sans CJK SC, Arial, sans-serif" font-size="40" font-weight="800">开黑</text>
	</g>
	</g>
</svg>
